<svg width="58" height="26" viewBox="0 0 58 26" fill="none" xmlns="http://www.w3.org/2000/svg">
<path d="M19.4375 5.28125L4 20.7188M4 5.28125L19.4375 20.7188" stroke="#32C4C3" stroke-width="7" stroke-linecap="round" stroke-linejoin="round"/>
<path d="M39.6932 18.0255C41.0261 19.3584 42.8338 20.1071 44.7188 20.1071C46.6037 20.1071 48.4114 19.3584 49.7443 18.0255C51.0771 16.6927 51.8259 14.8849 51.8259 13C51.8259 11.1151 51.0771 9.30734 49.7443 7.97449C48.4114 6.64164 46.6037 5.89286 44.7188 5.89286C42.8338 5.89286 41.0261 6.64164 39.6932 7.97449C38.3604 9.30734 37.6116 11.1151 37.6116 13C37.6116 14.8849 38.3604 16.6927 39.6932 18.0255ZM53.0273 4.6915C55.2308 6.89505 56.4688 9.88371 56.4688 13C56.4688 16.1163 55.2308 19.105 53.0273 21.3085C50.8237 23.5121 47.835 24.75 44.7188 24.75C41.6025 24.75 38.6138 23.5121 36.4102 21.3085C34.2067 19.105 32.9688 16.1163 32.9688 13C32.9688 9.88371 34.2067 6.89505 36.4102 4.6915C38.6138 2.48794 41.6025 1.25 44.7188 1.25C47.835 1.25 50.8237 2.48794 53.0273 4.6915Z" fill="#F7B336" stroke="#F7B336" stroke-width="1.5"/>
</svg>
