<svg width="36" height="36" viewBox="0 0 36 36" fill="none" xmlns="http://www.w3.org/2000/svg">
<path d="M10.4491 25.5509C12.4517 27.5535 15.1679 28.6786 18 28.6786C20.8321 28.6786 23.5483 27.5535 25.5509 25.5509C27.5535 23.5483 28.6786 20.8321 28.6786 18C28.6786 15.1679 27.5535 12.4517 25.5509 10.4491C23.5483 8.44649 20.8321 7.32143 18 7.32143C15.1679 7.32143 12.4517 8.44649 10.4491 10.4491C8.44649 12.4517 7.32143 15.1679 7.32143 18C7.32143 20.8321 8.44649 23.5483 10.4491 25.5509ZM29.844 6.15596C32.9853 9.2972 34.75 13.5576 34.75 18C34.75 22.4424 32.9853 26.7028 29.844 29.844C26.7028 32.9853 22.4424 34.75 18 34.75C13.5576 34.75 9.2972 32.9853 6.15596 29.844C3.01473 26.7028 1.25 22.4424 1.25 18C1.25 13.5576 3.01473 9.2972 6.15596 6.15596C9.2972 3.01473 13.5576 1.25 18 1.25C22.4424 1.25 26.7028 3.01473 29.844 6.15596Z" fill="#F7B336" stroke="#F7B336" stroke-width="1.5"/>
</svg>
